# xmcd
#
# Track frame offsets: 
#        150
#        14484
#        32362
#        45642
#        63544
#        84733
#        97617
#        114737
#        133906
#        153508
#        168960
#        187747
#        204721
#        227288
#        244230
#        260144
#        275363
#        293467
#
# Disc length: 4159 seconds
#
# Revision: 0
# Processed by: cddbd v1.5.2PL0 Copyright (c) Steve Scherf et al.
# Submitted via: ExactAudioCopy v0.95b4
#
DISCID=f0103d12
DTITLE=Various Artist - Siempre Te Amare Vol.14
DYEAR=2000
DGENRE=Ballad
TTITLE0=Menudo - Quiero ser
TTITLE1=Pablo Ruiz - La Malagueña
TTITLE2=Guillermo Davila - Solo pienso en ti
TTITLE3=Daniela Romo - Yo no te pido la Luna
TTITLE4=Rocio Jurado - Por qué me habrás besado
TTITLE5=Amanda Miguel - Asi no te amará jamás
TTITLE6=Leo Dan - Pídeme la Luna
TTITLE7=José Luis Perales - Y ¿cómo es él?
TTITLE8=Angela Carrasco - No me puedo quejar
TTITLE9=Rocio Durcal - Jamás te dejaré
TTITLE10=Pandora - Todavía
TTITLE11=Marisela - Sola con mi soledad
TTITLE12=Isabel Pantoja - Que voy a hacer contigo
TTITLE13=José José - Lo dudo
TTITLE14=Manuel Mijares - Para amarnos mas
TTITLE15=Lucero - Cuando llega el amor
TTITLE16=Maria Conchita Alonso - La loca
TTITLE17=Myriam Hernandez - Peligroso amor
EXTD=
EXTT0=
EXTT1=
EXTT2=
EXTT3=
EXTT4=
EXTT5=
EXTT6=
EXTT7=
EXTT8=
EXTT9=
EXTT10=
EXTT11=
EXTT12=
EXTT13=
EXTT14=
EXTT15=
EXTT16=
EXTT17=
PLAYORDER=
